<svg width="20" height="20" viewBox="0 0 20 20" fill="none" xmlns="http://www.w3.org/2000/svg">
<path d="M10 1.25C5.16797 1.25 1.25 5.16797 1.25 10C1.25 14.832 5.16797 18.75 10 18.75C14.832 18.75 18.75 14.832 18.75 10C18.75 5.16797 14.832 1.25 10 1.25ZM6.39258 13.7188C6.35352 13.7363 6.30664 13.7188 6.28906 13.6777C6.28125 13.6582 6.28125 13.6348 6.28906 13.6152L8.2168 9.21094L10.7969 11.791L6.39258 13.7188ZM13.7188 6.39258L11.791 10.7969L9.21094 8.2168L13.6152 6.28906C13.6543 6.27148 13.7012 6.28906 13.7188 6.33008C13.7266 6.34961 13.7266 6.37109 13.7188 6.39258Z" fill="#081836"/>
</svg>
