<svg width="20" height="20" viewBox="0 0 20 20" fill="none" xmlns="http://www.w3.org/2000/svg">
<path d="M13.3336 9.99996C15.6336 9.99996 17.5003 8.13329 17.5003 5.83329C17.5003 3.53329 15.6336 1.66663 13.3336 1.66663C11.0336 1.66663 9.16698 3.53329 9.16698 5.83329C9.16698 8.13329 11.0336 9.99996 13.3336 9.99996ZM17.8753 14.6666C17.5503 14.3333 17.142 14.1666 16.667 14.1666H10.8336L9.10031 13.5583L9.37531 12.775L10.8336 13.3333H13.167C13.4586 13.3333 13.692 13.2166 13.8836 13.025C14.0753 12.8333 14.167 12.6 14.167 12.3416C14.167 11.8916 13.9503 11.5833 13.517 11.4083L7.45865 9.16663H5.83365V16.6666L11.667 18.3333L18.3586 15.8333C18.367 15.3916 18.2003 15 17.8753 14.6666ZM4.16698 9.16663H0.820312V18.3333H4.16698V9.16663Z" fill="#081836"/>
</svg>
